<mxfile host="app.diagrams.net" agent="Mozilla/5.0 (Windows NT 10.0; Win64; x64; rv:134.0) Gecko/20100101 Firefox/134.0" version="26.0.5">
  <diagram name="Page-1" id="uF86S-6PNnufaLoN-Y9Z">
    <mxGraphModel dx="1313" dy="1798" grid="0" gridSize="10" guides="1" tooltips="1" connect="1" arrows="1" fold="1" page="1" pageScale="1" pageWidth="850" pageHeight="1100" math="0" shadow="0">
      <root>
        <mxCell id="0" />
        <mxCell id="1" parent="0" />
        <mxCell id="nggbhGL5BSBo-uKXkYWY-30" value="" style="whiteSpace=wrap;html=1;" vertex="1" parent="1">
          <mxGeometry x="5.5" width="837" height="69" as="geometry" />
        </mxCell>
        <mxCell id="nggbhGL5BSBo-uKXkYWY-1" value="&lt;h1&gt;&lt;font style=&quot;font-size: 48px;&quot; face=&quot;Helvetica&quot;&gt;Private Network &lt;/font&gt;&lt;/h1&gt;" style="text;strokeColor=none;align=center;fillColor=none;html=1;verticalAlign=middle;whiteSpace=wrap;rounded=0;" vertex="1" parent="1">
          <mxGeometry x="202" y="-70" width="476" height="30" as="geometry" />
        </mxCell>
        <mxCell id="nggbhGL5BSBo-uKXkYWY-2" value="" style="sketch=0;aspect=fixed;pointerEvents=1;shadow=0;dashed=0;html=1;strokeColor=none;labelPosition=center;verticalLabelPosition=bottom;verticalAlign=top;align=center;fillColor=#00188D;shape=mxgraph.azure.computer" vertex="1" parent="1">
          <mxGeometry x="96" y="165" width="67.78" height="61" as="geometry" />
        </mxCell>
        <mxCell id="nggbhGL5BSBo-uKXkYWY-3" value="" style="sketch=0;aspect=fixed;pointerEvents=1;shadow=0;dashed=0;html=1;strokeColor=none;labelPosition=center;verticalLabelPosition=bottom;verticalAlign=top;align=center;fillColor=#00188D;shape=mxgraph.mscae.enterprise.router" vertex="1" parent="1">
          <mxGeometry x="386" y="169" width="78.21" height="61" as="geometry" />
        </mxCell>
        <mxCell id="nggbhGL5BSBo-uKXkYWY-5" value="" style="sketch=0;aspect=fixed;pointerEvents=1;shadow=0;dashed=0;html=1;strokeColor=none;labelPosition=center;verticalLabelPosition=bottom;verticalAlign=top;align=center;fillColor=#00188D;shape=mxgraph.azure.computer" vertex="1" parent="1">
          <mxGeometry x="683" y="165" width="67.78" height="61" as="geometry" />
        </mxCell>
        <mxCell id="nggbhGL5BSBo-uKXkYWY-7" value="&lt;div&gt;&lt;b&gt;User&lt;/b&gt;&lt;/div&gt;&lt;div&gt;&lt;b&gt;(Home computer)&lt;br&gt;&lt;/b&gt;&lt;/div&gt;" style="text;strokeColor=none;align=center;fillColor=none;html=1;verticalAlign=middle;whiteSpace=wrap;rounded=0;" vertex="1" parent="1">
          <mxGeometry x="73.83" y="237" width="112.11" height="30" as="geometry" />
        </mxCell>
        <mxCell id="nggbhGL5BSBo-uKXkYWY-8" value="&lt;b&gt;Router&lt;/b&gt;" style="text;strokeColor=none;align=center;fillColor=none;html=1;verticalAlign=middle;whiteSpace=wrap;rounded=0;" vertex="1" parent="1">
          <mxGeometry x="394" y="237" width="60" height="30" as="geometry" />
        </mxCell>
        <mxCell id="nggbhGL5BSBo-uKXkYWY-9" value="&lt;b&gt;Server&lt;/b&gt;" style="text;strokeColor=none;align=center;fillColor=none;html=1;verticalAlign=middle;whiteSpace=wrap;rounded=0;" vertex="1" parent="1">
          <mxGeometry x="686.89" y="237" width="60" height="30" as="geometry" />
        </mxCell>
        <mxCell id="nggbhGL5BSBo-uKXkYWY-10" value="" style="endArrow=classic;html=1;rounded=0;" edge="1" parent="1">
          <mxGeometry width="50" height="50" relative="1" as="geometry">
            <mxPoint x="178" y="185.5" as="sourcePoint" />
            <mxPoint x="359" y="185" as="targetPoint" />
          </mxGeometry>
        </mxCell>
        <mxCell id="nggbhGL5BSBo-uKXkYWY-11" value="" style="endArrow=classic;html=1;rounded=0;" edge="1" parent="1">
          <mxGeometry width="50" height="50" relative="1" as="geometry">
            <mxPoint x="487" y="185.5" as="sourcePoint" />
            <mxPoint x="668" y="185" as="targetPoint" />
          </mxGeometry>
        </mxCell>
        <mxCell id="nggbhGL5BSBo-uKXkYWY-13" value="" style="ellipse;whiteSpace=wrap;html=1;aspect=fixed;strokeColor=light-dark(#0000a0, #ededed);" vertex="1" parent="1">
          <mxGeometry x="384" y="390" width="80" height="80" as="geometry" />
        </mxCell>
        <mxCell id="nggbhGL5BSBo-uKXkYWY-14" value="&lt;b&gt;&lt;span style=&quot;color: light-dark(rgb(0, 0, 160), rgb(237, 237, 237));&quot;&gt;ISP&lt;/span&gt;&lt;/b&gt;" style="text;strokeColor=none;align=center;fillColor=none;html=1;verticalAlign=middle;whiteSpace=wrap;rounded=0;" vertex="1" parent="1">
          <mxGeometry x="395" y="415" width="60" height="30" as="geometry" />
        </mxCell>
        <mxCell id="nggbhGL5BSBo-uKXkYWY-16" value="" style="endArrow=classic;html=1;rounded=0;" edge="1" parent="1">
          <mxGeometry width="50" height="50" relative="1" as="geometry">
            <mxPoint x="424" y="379" as="sourcePoint" />
            <mxPoint x="424" y="279" as="targetPoint" />
          </mxGeometry>
        </mxCell>
        <mxCell id="nggbhGL5BSBo-uKXkYWY-17" value="&lt;b&gt;Assigns Public IP Address to the router&lt;br&gt;&lt;/b&gt;" style="text;strokeColor=none;align=center;fillColor=none;html=1;verticalAlign=middle;whiteSpace=wrap;rounded=0;rotation=0;" vertex="1" parent="1">
          <mxGeometry x="351.11" y="477" width="148" height="30" as="geometry" />
        </mxCell>
        <mxCell id="nggbhGL5BSBo-uKXkYWY-18" value="&lt;b&gt;Sends Request using Private IP Address &lt;br&gt;&lt;/b&gt;" style="text;strokeColor=none;align=center;fillColor=none;html=1;verticalAlign=middle;whiteSpace=wrap;rounded=0;" vertex="1" parent="1">
          <mxGeometry x="188" y="147" width="150" height="30" as="geometry" />
        </mxCell>
        <mxCell id="nggbhGL5BSBo-uKXkYWY-19" value="&lt;b&gt;Forwards the request sent using its Public IP Address &lt;br&gt;&lt;/b&gt;" style="text;strokeColor=none;align=center;fillColor=none;html=1;verticalAlign=middle;whiteSpace=wrap;rounded=0;" vertex="1" parent="1">
          <mxGeometry x="487" y="145" width="165" height="30" as="geometry" />
        </mxCell>
        <mxCell id="nggbhGL5BSBo-uKXkYWY-20" value="&lt;b&gt;Sends Response to the Public IP Address &lt;br&gt;&lt;/b&gt;" style="text;strokeColor=none;align=center;fillColor=none;html=1;verticalAlign=middle;whiteSpace=wrap;rounded=0;" vertex="1" parent="1">
          <mxGeometry x="506" y="212" width="139" height="30" as="geometry" />
        </mxCell>
        <mxCell id="nggbhGL5BSBo-uKXkYWY-21" value="" style="endArrow=classic;html=1;rounded=0;" edge="1" parent="1">
          <mxGeometry width="50" height="50" relative="1" as="geometry">
            <mxPoint x="668" y="206" as="sourcePoint" />
            <mxPoint x="484" y="206" as="targetPoint" />
          </mxGeometry>
        </mxCell>
        <mxCell id="nggbhGL5BSBo-uKXkYWY-22" value="" style="endArrow=classic;html=1;rounded=0;" edge="1" parent="1">
          <mxGeometry width="50" height="50" relative="1" as="geometry">
            <mxPoint x="357" y="207" as="sourcePoint" />
            <mxPoint x="176" y="207" as="targetPoint" />
          </mxGeometry>
        </mxCell>
        <mxCell id="nggbhGL5BSBo-uKXkYWY-23" value="&lt;b&gt;Forwards the response to the Private IP Adress &lt;br&gt;&lt;/b&gt;" style="text;strokeColor=none;align=center;fillColor=none;html=1;verticalAlign=middle;whiteSpace=wrap;rounded=0;" vertex="1" parent="1">
          <mxGeometry x="196" y="214" width="146" height="30" as="geometry" />
        </mxCell>
        <mxCell id="nggbhGL5BSBo-uKXkYWY-25" value="&lt;span style=&quot;color: light-dark(rgb(0, 0, 160), rgb(237, 237, 237));&quot;&gt;&lt;b&gt;Performs NAT- Network Address Translation&lt;br&gt;&lt;/b&gt;&lt;/span&gt;" style="text;strokeColor=none;align=center;fillColor=none;html=1;verticalAlign=middle;whiteSpace=wrap;rounded=0;" vertex="1" parent="1">
          <mxGeometry x="355.48" y="117" width="139.27" height="30" as="geometry" />
        </mxCell>
        <mxCell id="nggbhGL5BSBo-uKXkYWY-29" value="&lt;div style=&quot;line-height: 160%;&quot; align=&quot;justify&quot;&gt;&lt;font style=&quot;font-size: 14px; line-height: 160%;&quot;&gt;&lt;b&gt;A local network where devices communicate using the private ip &lt;/b&gt;&lt;b&gt;addresses assigned to them. These addresses are not directly accessed by&lt;/b&gt;&lt;b&gt; the internet so a router performs NAT to map Private IP to Public IP &lt;/b&gt;&lt;b&gt;assigned by the ISP.&lt;/b&gt;&lt;br&gt;&lt;/font&gt;&lt;/div&gt;" style="text;strokeColor=none;align=left;fillColor=none;html=1;verticalAlign=middle;whiteSpace=wrap;rounded=0;imageHeight=36;" vertex="1" parent="1">
          <mxGeometry x="15.500000000000007" y="16" width="817" height="30" as="geometry" />
        </mxCell>
      </root>
    </mxGraphModel>
  </diagram>
</mxfile>
